<?xml version="1.0" encoding="UTF-8" standalone="no"?>
<svg
   width="16"
   height="16"
   viewBox="0 0 16 16"
   fill="none"
   version="1.1"
   id="svg122"
   sodipodi:docname="icon.svg"
   inkscape:export-filename="icon.svg"
   inkscape:export-xdpi="96"
   inkscape:export-ydpi="96"
   inkscape:version="1.3.1 (9b9bdc1480, 2023-11-25, custom)"
   xmlns:inkscape="http://www.inkscape.org/namespaces/inkscape"
   xmlns:sodipodi="http://sodipodi.sourceforge.net/DTD/sodipodi-0.dtd"
   xmlns="http://www.w3.org/2000/svg"
   xmlns:svg="http://www.w3.org/2000/svg">
  <sodipodi:namedview
     id="namedview122"
     pagecolor="#ffffff"
     bordercolor="#000000"
     borderopacity="0.25"
     inkscape:showpageshadow="2"
     inkscape:pageopacity="0.0"
     inkscape:pagecheckerboard="0"
     inkscape:deskcolor="#d1d1d1"
     inkscape:zoom="25.5625"
     inkscape:cx="8"
     inkscape:cy="8"
     inkscape:window-width="1280"
     inkscape:window-height="720"
     inkscape:window-x="0"
     inkscape:window-y="0"
     inkscape:window-maximized="1"
     inkscape:current-layer="svg122" />
  <g
     clip-path="url(#clip0_1_729)"
     id="g121">
    <rect
       width="1"
       height="1"
       transform="matrix(1,0,0,-1,6,12)"
       fill="#000000"
       id="rect2"
       x="0"
       y="0"
       style="display:inline" />
    <rect
       width="1"
       height="1"
       transform="matrix(1,0,0,-1,6,14)"
       fill="#000000"
       id="rect3"
       x="0"
       y="0"
       style="display:inline" />
    <rect
       x="6"
       y="2"
       width="1"
       height="1"
       fill="black"
       id="rect4" />
    <rect
       width="1"
       height="1"
       transform="matrix(1 0 0 -1 6 15)"
       fill="black"
       id="rect5" />
    <rect
       x="6"
       y="1"
       width="1"
       height="1"
       fill="black"
       id="rect6" />
    <rect
       width="1"
       height="1"
       transform="matrix(1 0 0 -1 6 11)"
       fill="black"
       id="rect7" />
    <rect
       width="1"
       height="1"
       transform="matrix(1 0 0 -1 6 9)"
       fill="black"
       id="rect8" />
    <rect
       width="1"
       height="1"
       transform="matrix(1 0 0 -1 6 7)"
       fill="black"
       id="rect9" />
    <rect
       width="1"
       height="1"
       transform="matrix(1 0 0 -1 5 11)"
       fill="black"
       id="rect10" />
    <rect
       width="1"
       height="1"
       transform="matrix(1 0 0 -1 3 12)"
       fill="black"
       id="rect11" />
    <rect
       x="13"
       y="12"
       width="1"
       height="1"
       transform="rotate(-180 13 12)"
       fill="black"
       id="rect12" />
    <rect
       width="1"
       height="1"
       transform="matrix(-1 0 0 1 13 4)"
       fill="black"
       id="rect13" />
    <rect
       x="3"
       y="4"
       width="1"
       height="1"
       fill="black"
       id="rect14" />
    <rect
       width="1"
       height="1"
       transform="matrix(1 0 0 -1 2 12)"
       fill="black"
       id="rect15" />
    <rect
       x="14"
       y="12"
       width="1"
       height="1"
       transform="rotate(-180 14 12)"
       fill="black"
       id="rect16" />
    <rect
       width="1"
       height="1"
       transform="matrix(-1 0 0 1 14 4)"
       fill="black"
       id="rect17" />
    <rect
       x="2"
       y="4"
       width="1"
       height="1"
       fill="black"
       id="rect18" />
    <rect
       width="1"
       height="1"
       transform="matrix(1 0 0 -1 2 13)"
       fill="black"
       id="rect19" />
    <rect
       x="14"
       y="13"
       width="1"
       height="1"
       transform="rotate(-180 14 13)"
       fill="black"
       id="rect20" />
    <rect
       width="1"
       height="1"
       transform="matrix(-1 0 0 1 14 3)"
       fill="black"
       id="rect21" />
    <rect
       x="2"
       y="3"
       width="1"
       height="1"
       fill="black"
       id="rect22" />
    <rect
       width="1"
       height="1"
       transform="matrix(1 0 0 -1 1 13)"
       fill="black"
       id="rect23" />
    <rect
       x="15"
       y="13"
       width="1"
       height="1"
       transform="rotate(-180 15 13)"
       fill="black"
       id="rect24" />
    <rect
       width="1"
       height="1"
       transform="matrix(-1 0 0 1 15 3)"
       fill="black"
       id="rect25" />
    <rect
       x="1"
       y="3"
       width="1"
       height="1"
       fill="black"
       id="rect26" />
    <rect
       width="1"
       height="1"
       transform="matrix(1 0 0 -1 1 14)"
       fill="black"
       id="rect27" />
    <rect
       x="15"
       y="14"
       width="1"
       height="1"
       transform="rotate(-180 15 14)"
       fill="black"
       id="rect28" />
    <rect
       width="1"
       height="1"
       transform="matrix(-1 0 0 1 15 2)"
       fill="black"
       id="rect29" />
    <rect
       x="1"
       y="2"
       width="1"
       height="1"
       fill="black"
       id="rect30" />
    <rect
       width="1"
       height="1"
       transform="matrix(1 0 0 -1 1 15)"
       fill="black"
       id="rect31" />
    <rect
       x="15"
       y="15"
       width="1"
       height="1"
       transform="rotate(-180 15 15)"
       fill="black"
       id="rect32" />
    <rect
       width="1"
       height="1"
       transform="matrix(-1 0 0 1 15 1)"
       fill="black"
       id="rect33" />
    <rect
       x="1"
       y="1"
       width="1"
       height="1"
       fill="black"
       id="rect34" />
    <rect
       width="1"
       height="1"
       transform="matrix(1 0 0 -1 4 13)"
       fill="black"
       id="rect35" />
    <rect
       x="12"
       y="13"
       width="1"
       height="1"
       transform="rotate(-180 12 13)"
       fill="black"
       id="rect36" />
    <rect
       width="1"
       height="1"
       transform="matrix(-1 0 0 1 12 3)"
       fill="black"
       id="rect37" />
    <rect
       x="4"
       y="3"
       width="1"
       height="1"
       fill="black"
       id="rect38" />
    <rect
       width="1"
       height="1"
       transform="matrix(1 0 0 -1 4 14)"
       fill="black"
       id="rect39" />
    <rect
       x="12"
       y="14"
       width="1"
       height="1"
       transform="rotate(-180 12 14)"
       fill="black"
       id="rect40" />
    <rect
       width="1"
       height="1"
       transform="matrix(-1 0 0 1 12 2)"
       fill="black"
       id="rect41" />
    <rect
       x="4"
       y="2"
       width="1"
       height="1"
       fill="black"
       id="rect42" />
    <rect
       width="1"
       height="1"
       transform="matrix(1 0 0 -1 3 14)"
       fill="black"
       id="rect43" />
    <rect
       x="13"
       y="14"
       width="1"
       height="1"
       transform="rotate(-180 13 14)"
       fill="black"
       id="rect44" />
    <rect
       width="1"
       height="1"
       transform="matrix(-1 0 0 1 13 2)"
       fill="black"
       id="rect45" />
    <rect
       x="3"
       y="2"
       width="1"
       height="1"
       fill="black"
       id="rect46" />
    <rect
       width="1"
       height="1"
       transform="matrix(1 0 0 -1 2 14)"
       fill="black"
       id="rect47" />
    <rect
       x="14"
       y="14"
       width="1"
       height="1"
       transform="rotate(-180 14 14)"
       fill="black"
       id="rect48" />
    <rect
       width="1"
       height="1"
       transform="matrix(-1 0 0 1 14 2)"
       fill="black"
       id="rect49" />
    <rect
       x="2"
       y="2"
       width="1"
       height="1"
       fill="black"
       id="rect50" />
    <rect
       width="1"
       height="1"
       transform="matrix(1 0 0 -1 2 15)"
       fill="black"
       id="rect51" />
    <rect
       x="14"
       y="15"
       width="1"
       height="1"
       transform="rotate(-180 14 15)"
       fill="black"
       id="rect52" />
    <rect
       width="1"
       height="1"
       transform="matrix(-1 0 0 1 14 1)"
       fill="black"
       id="rect53" />
    <rect
       x="2"
       y="1"
       width="1"
       height="1"
       fill="black"
       id="rect54" />
    <rect
       width="1"
       height="1"
       transform="matrix(1 0 0 -1 3 15)"
       fill="black"
       id="rect55" />
    <rect
       x="13"
       y="15"
       width="1"
       height="1"
       transform="rotate(-180 13 15)"
       fill="black"
       id="rect56" />
    <rect
       width="1"
       height="1"
       transform="matrix(-1 0 0 1 13 1)"
       fill="black"
       id="rect57" />
    <rect
       x="3"
       y="1"
       width="1"
       height="1"
       fill="black"
       id="rect58" />
    <rect
       width="1"
       height="1"
       transform="matrix(1 0 0 -1 4 10)"
       fill="black"
       id="rect59" />
    <rect
       width="1"
       height="1"
       transform="matrix(1 0 0 -1 2 10)"
       fill="black"
       id="rect60" />
    <rect
       x="14"
       y="10"
       width="1"
       height="1"
       transform="rotate(-180 14 10)"
       fill="black"
       id="rect61" />
    <rect
       width="1"
       height="1"
       transform="matrix(1 0 0 -1 1 10)"
       fill="black"
       id="rect62" />
    <rect
       x="15"
       y="10"
       width="1"
       height="1"
       transform="rotate(-180 15 10)"
       fill="black"
       id="rect63" />
    <rect
       width="1"
       height="1"
       transform="matrix(1 0 0 -1 5 10)"
       fill="black"
       id="rect64" />
    <rect
       width="1"
       height="1"
       transform="matrix(1 0 0 -1 4 9)"
       fill="black"
       id="rect65" />
    <rect
       width="1"
       height="1"
       transform="matrix(1 0 0 -1 2 9)"
       fill="black"
       id="rect66" />
    <rect
       width="1"
       height="1"
       transform="matrix(1 0 0 -1 1 9)"
       fill="black"
       id="rect67" />
    <rect
       x="15"
       y="9"
       width="1"
       height="1"
       transform="rotate(-180 15 9)"
       fill="black"
       id="rect68" />
    <rect
       width="1"
       height="1"
       transform="matrix(1 0 0 -1 0 9)"
       fill="black"
       id="rect69" />
    <rect
       x="16"
       y="9"
       width="1"
       height="1"
       transform="rotate(-180 16 9)"
       fill="black"
       id="rect70" />
    <rect
       width="1"
       height="1"
       transform="matrix(1 0 0 -1 10 9)"
       fill="black"
       id="rect71" />
    <rect
       width="1"
       height="1"
       transform="matrix(1 0 0 -1 4 8)"
       fill="black"
       id="rect72" />
    <rect
       x="14"
       y="8"
       width="1"
       height="1"
       transform="rotate(-180 14 8)"
       fill="black"
       id="rect73" />
    <rect
       width="1"
       height="1"
       transform="matrix(1 0 0 -1 1 8)"
       fill="black"
       id="rect74" />
    <rect
       x="15"
       y="8"
       width="1"
       height="1"
       transform="rotate(-180 15 8)"
       fill="black"
       id="rect75" />
    <rect
       width="1"
       height="1"
       transform="matrix(1 0 0 -1 0 8)"
       fill="black"
       id="rect76" />
    <rect
       x="16"
       y="8"
       width="1"
       height="1"
       transform="rotate(-180 16 8)"
       fill="black"
       id="rect77" />
    <rect
       width="1"
       height="1"
       transform="matrix(1 0 0 -1 5 8)"
       fill="black"
       id="rect78" />
    <rect
       width="1"
       height="1"
       transform="matrix(1 0 0 -1 4 7)"
       fill="black"
       id="rect79" />
    <rect
       width="1"
       height="1"
       transform="matrix(1 0 0 -1 2 7)"
       fill="black"
       id="rect80" />
    <rect
       x="14"
       y="7"
       width="1"
       height="1"
       transform="rotate(-180 14 7)"
       fill="black"
       id="rect81" />
    <rect
       width="1"
       height="1"
       transform="matrix(1 0 0 -1 1 7)"
       fill="black"
       id="rect82" />
    <rect
       x="15"
       y="7"
       width="1"
       height="1"
       transform="rotate(-180 15 7)"
       fill="black"
       id="rect83" />
    <rect
       width="1"
       height="1"
       transform="matrix(1 0 0 -1 10 7)"
       fill="black"
       id="rect84" />
    <rect
       width="1"
       height="1"
       transform="matrix(1 0 0 -1 5 6)"
       fill="black"
       id="rect85" />
    <rect
       width="1"
       height="1"
       transform="matrix(1 0 0 -1 6 5)"
       fill="black"
       id="rect86" />
    <rect
       width="1"
       height="1"
       transform="matrix(1 0 0 -1 7 5)"
       fill="black"
       id="rect87" />
    <rect
       width="1"
       height="1"
       transform="matrix(1 0 0 -1 8 5)"
       fill="black"
       id="rect88" />
    <rect
       width="1"
       height="1"
       transform="matrix(1 0 0 -1 9 5)"
       fill="black"
       id="rect89" />
    <rect
       width="1"
       height="1"
       transform="matrix(1 0 0 -1 10 6)"
       fill="black"
       id="rect90" />
    <rect
       width="1"
       height="1"
       transform="matrix(1 0 0 -1 11 7)"
       fill="black"
       id="rect91" />
    <rect
       width="1"
       height="1"
       transform="matrix(1 0 0 -1 11 8)"
       fill="black"
       id="rect92" />
    <rect
       width="1"
       height="1"
       transform="matrix(1 0 0 -1 11 9)"
       fill="black"
       id="rect93" />
    <rect
       width="1"
       height="1"
       transform="matrix(1 0 0 -1 11 10)"
       fill="black"
       id="rect94" />
    <rect
       width="1"
       height="1"
       transform="matrix(1 0 0 -1 10 11)"
       fill="black"
       id="rect95" />
    <rect
       width="1"
       height="1"
       transform="matrix(1 0 0 -1 7 12)"
       fill="black"
       id="rect96" />
    <rect
       x="7"
       y="2"
       width="1"
       height="1"
       fill="black"
       id="rect97" />
    <rect
       width="1"
       height="1"
       transform="matrix(1 0 0 -1 7 15)"
       fill="black"
       id="rect98" />
    <rect
       x="7"
       y="1"
       width="1"
       height="1"
       fill="black"
       id="rect99" />
    <rect
       width="1"
       height="1"
       transform="matrix(1 0 0 -1 7 16)"
       fill="black"
       id="rect100" />
    <rect
       x="7"
       width="1"
       height="1"
       fill="black"
       id="rect101" />
    <rect
       width="1"
       height="1"
       transform="matrix(1 0 0 -1 7 10)"
       fill="black"
       id="rect102" />
    <rect
       width="1"
       height="1"
       transform="matrix(1 0 0 -1 7 8)"
       fill="black"
       id="rect103" />
    <rect
       width="1"
       height="1"
       transform="matrix(1 0 0 -1 7 6)"
       fill="black"
       id="rect104" />
    <rect
       width="1"
       height="1"
       transform="matrix(1 0 0 -1 8 12)"
       fill="black"
       id="rect105" />
    <rect
       width="1"
       height="1"
       transform="matrix(1 0 0 -1 8 14)"
       fill="black"
       id="rect106" />
    <rect
       width="1"
       height="1"
       transform="matrix(1 0 0 -1 8 15)"
       fill="black"
       id="rect107" />
    <rect
       x="8"
       y="1"
       width="1"
       height="1"
       fill="black"
       id="rect108" />
    <rect
       width="1"
       height="1"
       transform="matrix(1 0 0 -1 8 16)"
       fill="black"
       id="rect109" />
    <rect
       x="8"
       width="1"
       height="1"
       fill="black"
       id="rect110" />
    <rect
       width="1"
       height="1"
       transform="matrix(1 0 0 -1 8 11)"
       fill="black"
       id="rect111" />
    <rect
       width="1"
       height="1"
       transform="matrix(1 0 0 -1 8 9)"
       fill="black"
       id="rect112" />
    <rect
       width="1"
       height="1"
       transform="matrix(1 0 0 -1 8 7)"
       fill="black"
       id="rect113" />
    <rect
       width="1"
       height="1"
       transform="matrix(1 0 0 -1 9 12)"
       fill="black"
       id="rect114" />
    <rect
       width="1"
       height="1"
       transform="matrix(1 0 0 -1 9 14)"
       fill="black"
       id="rect115" />
    <rect
       x="9"
       y="2"
       width="1"
       height="1"
       fill="black"
       id="rect116" />
    <rect
       width="1"
       height="1"
       transform="matrix(1 0 0 -1 9 15)"
       fill="black"
       id="rect117" />
    <rect
       x="9"
       y="1"
       width="1"
       height="1"
       fill="black"
       id="rect118" />
    <rect
       width="1"
       height="1"
       transform="matrix(1 0 0 -1 9 10)"
       fill="black"
       id="rect119" />
    <rect
       width="1"
       height="1"
       transform="matrix(1 0 0 -1 9 8)"
       fill="black"
       id="rect120" />
    <rect
       width="1"
       height="1"
       transform="matrix(1 0 0 -1 9 6)"
       fill="black"
       id="rect121" />
  </g>
  <defs
     id="defs122">
    <clipPath
       id="clip0_1_729">
      <rect
         width="16"
         height="16"
         fill="white"
         transform="matrix(1 0 0 -1 0 16)"
         id="rect122" />
    </clipPath>
  </defs>
</svg>
