<svg width="16" height="16" viewBox="0 0 16 16" fill="none" xmlns="http://www.w3.org/2000/svg">
<g clip-path="url(#clip0_1_729)">
<rect width="1" height="1" transform="matrix(1 0 0 -1 6 12)" fill="black"/>
<rect width="1" height="1" transform="matrix(1 0 0 -1 6 14)" fill="black"/>
<rect x="6" y="2" width="1" height="1" fill="black"/>
<rect width="1" height="1" transform="matrix(1 0 0 -1 6 15)" fill="black"/>
<rect x="6" y="1" width="1" height="1" fill="black"/>
<rect width="1" height="1" transform="matrix(1 0 0 -1 6 11)" fill="black"/>
<rect width="1" height="1" transform="matrix(1 0 0 -1 6 9)" fill="black"/>
<rect width="1" height="1" transform="matrix(1 0 0 -1 6 7)" fill="black"/>
<rect width="1" height="1" transform="matrix(1 0 0 -1 5 11)" fill="black"/>
<rect width="1" height="1" transform="matrix(1 0 0 -1 3 12)" fill="black"/>
<rect x="13" y="12" width="1" height="1" transform="rotate(-180 13 12)" fill="black"/>
<rect width="1" height="1" transform="matrix(-1 0 0 1 13 4)" fill="black"/>
<rect x="3" y="4" width="1" height="1" fill="black"/>
<rect width="1" height="1" transform="matrix(1 0 0 -1 2 12)" fill="black"/>
<rect x="14" y="12" width="1" height="1" transform="rotate(-180 14 12)" fill="black"/>
<rect width="1" height="1" transform="matrix(-1 0 0 1 14 4)" fill="black"/>
<rect x="2" y="4" width="1" height="1" fill="black"/>
<rect width="1" height="1" transform="matrix(1 0 0 -1 2 13)" fill="black"/>
<rect x="14" y="13" width="1" height="1" transform="rotate(-180 14 13)" fill="black"/>
<rect width="1" height="1" transform="matrix(-1 0 0 1 14 3)" fill="black"/>
<rect x="2" y="3" width="1" height="1" fill="black"/>
<rect width="1" height="1" transform="matrix(1 0 0 -1 1 13)" fill="black"/>
<rect x="15" y="13" width="1" height="1" transform="rotate(-180 15 13)" fill="black"/>
<rect width="1" height="1" transform="matrix(-1 0 0 1 15 3)" fill="black"/>
<rect x="1" y="3" width="1" height="1" fill="black"/>
<rect width="1" height="1" transform="matrix(1 0 0 -1 1 14)" fill="black"/>
<rect x="15" y="14" width="1" height="1" transform="rotate(-180 15 14)" fill="black"/>
<rect width="1" height="1" transform="matrix(-1 0 0 1 15 2)" fill="black"/>
<rect x="1" y="2" width="1" height="1" fill="black"/>
<rect width="1" height="1" transform="matrix(1 0 0 -1 1 15)" fill="black"/>
<rect x="15" y="15" width="1" height="1" transform="rotate(-180 15 15)" fill="black"/>
<rect width="1" height="1" transform="matrix(-1 0 0 1 15 1)" fill="black"/>
<rect x="1" y="1" width="1" height="1" fill="black"/>
<rect width="1" height="1" transform="matrix(1 0 0 -1 4 13)" fill="black"/>
<rect x="12" y="13" width="1" height="1" transform="rotate(-180 12 13)" fill="black"/>
<rect width="1" height="1" transform="matrix(-1 0 0 1 12 3)" fill="black"/>
<rect x="4" y="3" width="1" height="1" fill="black"/>
<rect width="1" height="1" transform="matrix(1 0 0 -1 4 14)" fill="black"/>
<rect x="12" y="14" width="1" height="1" transform="rotate(-180 12 14)" fill="black"/>
<rect width="1" height="1" transform="matrix(-1 0 0 1 12 2)" fill="black"/>
<rect x="4" y="2" width="1" height="1" fill="black"/>
<rect width="1" height="1" transform="matrix(1 0 0 -1 3 14)" fill="black"/>
<rect x="13" y="14" width="1" height="1" transform="rotate(-180 13 14)" fill="black"/>
<rect width="1" height="1" transform="matrix(-1 0 0 1 13 2)" fill="black"/>
<rect x="3" y="2" width="1" height="1" fill="black"/>
<rect width="1" height="1" transform="matrix(1 0 0 -1 2 14)" fill="black"/>
<rect x="14" y="14" width="1" height="1" transform="rotate(-180 14 14)" fill="black"/>
<rect width="1" height="1" transform="matrix(-1 0 0 1 14 2)" fill="black"/>
<rect x="2" y="2" width="1" height="1" fill="black"/>
<rect width="1" height="1" transform="matrix(1 0 0 -1 2 15)" fill="black"/>
<rect x="14" y="15" width="1" height="1" transform="rotate(-180 14 15)" fill="black"/>
<rect width="1" height="1" transform="matrix(-1 0 0 1 14 1)" fill="black"/>
<rect x="2" y="1" width="1" height="1" fill="black"/>
<rect width="1" height="1" transform="matrix(1 0 0 -1 3 15)" fill="black"/>
<rect x="13" y="15" width="1" height="1" transform="rotate(-180 13 15)" fill="black"/>
<rect width="1" height="1" transform="matrix(-1 0 0 1 13 1)" fill="black"/>
<rect x="3" y="1" width="1" height="1" fill="black"/>
<rect width="1" height="1" transform="matrix(1 0 0 -1 4 10)" fill="black"/>
<rect width="1" height="1" transform="matrix(1 0 0 -1 2 10)" fill="black"/>
<rect x="14" y="10" width="1" height="1" transform="rotate(-180 14 10)" fill="black"/>
<rect width="1" height="1" transform="matrix(1 0 0 -1 1 10)" fill="black"/>
<rect x="15" y="10" width="1" height="1" transform="rotate(-180 15 10)" fill="black"/>
<rect width="1" height="1" transform="matrix(1 0 0 -1 5 10)" fill="black"/>
<rect width="1" height="1" transform="matrix(1 0 0 -1 4 9)" fill="black"/>
<rect width="1" height="1" transform="matrix(1 0 0 -1 2 9)" fill="black"/>
<rect width="1" height="1" transform="matrix(1 0 0 -1 1 9)" fill="black"/>
<rect x="15" y="9" width="1" height="1" transform="rotate(-180 15 9)" fill="black"/>
<rect width="1" height="1" transform="matrix(1 0 0 -1 0 9)" fill="black"/>
<rect x="16" y="9" width="1" height="1" transform="rotate(-180 16 9)" fill="black"/>
<rect width="1" height="1" transform="matrix(1 0 0 -1 10 9)" fill="black"/>
<rect width="1" height="1" transform="matrix(1 0 0 -1 4 8)" fill="black"/>
<rect x="14" y="8" width="1" height="1" transform="rotate(-180 14 8)" fill="black"/>
<rect width="1" height="1" transform="matrix(1 0 0 -1 1 8)" fill="black"/>
<rect x="15" y="8" width="1" height="1" transform="rotate(-180 15 8)" fill="black"/>
<rect width="1" height="1" transform="matrix(1 0 0 -1 0 8)" fill="black"/>
<rect x="16" y="8" width="1" height="1" transform="rotate(-180 16 8)" fill="black"/>
<rect width="1" height="1" transform="matrix(1 0 0 -1 5 8)" fill="black"/>
<rect width="1" height="1" transform="matrix(1 0 0 -1 4 7)" fill="black"/>
<rect width="1" height="1" transform="matrix(1 0 0 -1 2 7)" fill="black"/>
<rect x="14" y="7" width="1" height="1" transform="rotate(-180 14 7)" fill="black"/>
<rect width="1" height="1" transform="matrix(1 0 0 -1 1 7)" fill="black"/>
<rect x="15" y="7" width="1" height="1" transform="rotate(-180 15 7)" fill="black"/>
<rect width="1" height="1" transform="matrix(1 0 0 -1 10 7)" fill="black"/>
<rect width="1" height="1" transform="matrix(1 0 0 -1 5 6)" fill="black"/>
<rect width="1" height="1" transform="matrix(1 0 0 -1 6 5)" fill="black"/>
<rect width="1" height="1" transform="matrix(1 0 0 -1 7 5)" fill="black"/>
<rect width="1" height="1" transform="matrix(1 0 0 -1 8 5)" fill="black"/>
<rect width="1" height="1" transform="matrix(1 0 0 -1 9 5)" fill="black"/>
<rect width="1" height="1" transform="matrix(1 0 0 -1 10 6)" fill="black"/>
<rect width="1" height="1" transform="matrix(1 0 0 -1 11 7)" fill="black"/>
<rect width="1" height="1" transform="matrix(1 0 0 -1 11 8)" fill="black"/>
<rect width="1" height="1" transform="matrix(1 0 0 -1 11 9)" fill="black"/>
<rect width="1" height="1" transform="matrix(1 0 0 -1 11 10)" fill="black"/>
<rect width="1" height="1" transform="matrix(1 0 0 -1 10 11)" fill="black"/>
<rect width="1" height="1" transform="matrix(1 0 0 -1 7 12)" fill="black"/>
<rect x="7" y="2" width="1" height="1" fill="black"/>
<rect width="1" height="1" transform="matrix(1 0 0 -1 7 15)" fill="black"/>
<rect x="7" y="1" width="1" height="1" fill="black"/>
<rect width="1" height="1" transform="matrix(1 0 0 -1 7 16)" fill="black"/>
<rect x="7" width="1" height="1" fill="black"/>
<rect width="1" height="1" transform="matrix(1 0 0 -1 7 10)" fill="black"/>
<rect width="1" height="1" transform="matrix(1 0 0 -1 7 8)" fill="black"/>
<rect width="1" height="1" transform="matrix(1 0 0 -1 7 6)" fill="black"/>
<rect width="1" height="1" transform="matrix(1 0 0 -1 8 12)" fill="black"/>
<rect width="1" height="1" transform="matrix(1 0 0 -1 8 14)" fill="black"/>
<rect width="1" height="1" transform="matrix(1 0 0 -1 8 15)" fill="black"/>
<rect x="8" y="1" width="1" height="1" fill="black"/>
<rect width="1" height="1" transform="matrix(1 0 0 -1 8 16)" fill="black"/>
<rect x="8" width="1" height="1" fill="black"/>
<rect width="1" height="1" transform="matrix(1 0 0 -1 8 11)" fill="black"/>
<rect width="1" height="1" transform="matrix(1 0 0 -1 8 9)" fill="black"/>
<rect width="1" height="1" transform="matrix(1 0 0 -1 8 7)" fill="black"/>
<rect width="1" height="1" transform="matrix(1 0 0 -1 9 12)" fill="black"/>
<rect width="1" height="1" transform="matrix(1 0 0 -1 9 14)" fill="black"/>
<rect x="9" y="2" width="1" height="1" fill="black"/>
<rect width="1" height="1" transform="matrix(1 0 0 -1 9 15)" fill="black"/>
<rect x="9" y="1" width="1" height="1" fill="black"/>
<rect width="1" height="1" transform="matrix(1 0 0 -1 9 10)" fill="black"/>
<rect width="1" height="1" transform="matrix(1 0 0 -1 9 8)" fill="black"/>
<rect width="1" height="1" transform="matrix(1 0 0 -1 9 6)" fill="black"/>
</g>
<defs>
<clipPath id="clip0_1_729">
<rect width="16" height="16" fill="white" transform="matrix(1 0 0 -1 0 16)"/>
</clipPath>
</defs>
</svg>
