<svg width="112" height="42" viewBox="0 0 112 42" fill="none" xmlns="http://www.w3.org/2000/svg">
<rect width="112" height="42" fill="black"/>
<g clip-path="url(#clip0_53_11)">
<rect width="1" height="1" transform="matrix(1 0 0 -1 16 25)" fill="white"/>
<rect width="1" height="1" transform="matrix(1 0 0 -1 16 27)" fill="white"/>
<rect x="16" y="15" width="1" height="1" fill="white"/>
<rect width="1" height="1" transform="matrix(1 0 0 -1 16 28)" fill="white"/>
<rect x="16" y="14" width="1" height="1" fill="white"/>
<rect width="1" height="1" transform="matrix(1 0 0 -1 16 24)" fill="white"/>
<rect width="1" height="1" transform="matrix(1 0 0 -1 16 22)" fill="white"/>
<rect width="1" height="1" transform="matrix(1 0 0 -1 16 20)" fill="white"/>
<rect width="1" height="1" transform="matrix(1 0 0 -1 15 24)" fill="white"/>
<rect width="1" height="1" transform="matrix(1 0 0 -1 13 25)" fill="white"/>
<rect x="23" y="25" width="1" height="1" transform="rotate(-180 23 25)" fill="white"/>
<rect width="1" height="1" transform="matrix(-1 0 0 1 23 17)" fill="white"/>
<rect x="13" y="17" width="1" height="1" fill="white"/>
<rect width="1" height="1" transform="matrix(1 0 0 -1 12 25)" fill="white"/>
<rect x="24" y="25" width="1" height="1" transform="rotate(-180 24 25)" fill="white"/>
<rect width="1" height="1" transform="matrix(-1 0 0 1 24 17)" fill="white"/>
<rect x="12" y="17" width="1" height="1" fill="white"/>
<rect width="1" height="1" transform="matrix(1 0 0 -1 12 26)" fill="white"/>
<rect x="24" y="26" width="1" height="1" transform="rotate(-180 24 26)" fill="white"/>
<rect width="1" height="1" transform="matrix(-1 0 0 1 24 16)" fill="white"/>
<rect x="12" y="16" width="1" height="1" fill="white"/>
<rect width="1" height="1" transform="matrix(1 0 0 -1 11 26)" fill="white"/>
<rect x="25" y="26" width="1" height="1" transform="rotate(-180 25 26)" fill="white"/>
<rect width="1" height="1" transform="matrix(-1 0 0 1 25 16)" fill="white"/>
<rect x="11" y="16" width="1" height="1" fill="white"/>
<rect width="1" height="1" transform="matrix(1 0 0 -1 11 27)" fill="white"/>
<rect x="25" y="27" width="1" height="1" transform="rotate(-180 25 27)" fill="white"/>
<rect width="1" height="1" transform="matrix(-1 0 0 1 25 15)" fill="white"/>
<rect x="11" y="15" width="1" height="1" fill="white"/>
<rect width="1" height="1" transform="matrix(1 0 0 -1 11 28)" fill="white"/>
<rect x="25" y="28" width="1" height="1" transform="rotate(-180 25 28)" fill="white"/>
<rect width="1" height="1" transform="matrix(-1 0 0 1 25 14)" fill="white"/>
<rect x="11" y="14" width="1" height="1" fill="white"/>
<rect width="1" height="1" transform="matrix(1 0 0 -1 14 26)" fill="white"/>
<rect x="22" y="26" width="1" height="1" transform="rotate(-180 22 26)" fill="white"/>
<rect width="1" height="1" transform="matrix(-1 0 0 1 22 16)" fill="white"/>
<rect x="14" y="16" width="1" height="1" fill="white"/>
<rect width="1" height="1" transform="matrix(1 0 0 -1 14 27)" fill="white"/>
<rect x="22" y="27" width="1" height="1" transform="rotate(-180 22 27)" fill="white"/>
<rect width="1" height="1" transform="matrix(-1 0 0 1 22 15)" fill="white"/>
<rect x="14" y="15" width="1" height="1" fill="white"/>
<rect width="1" height="1" transform="matrix(1 0 0 -1 13 27)" fill="white"/>
<rect x="23" y="27" width="1" height="1" transform="rotate(-180 23 27)" fill="white"/>
<rect width="1" height="1" transform="matrix(-1 0 0 1 23 15)" fill="white"/>
<rect x="13" y="15" width="1" height="1" fill="white"/>
<rect width="1" height="1" transform="matrix(1 0 0 -1 12 27)" fill="white"/>
<rect x="24" y="27" width="1" height="1" transform="rotate(-180 24 27)" fill="white"/>
<rect width="1" height="1" transform="matrix(-1 0 0 1 24 15)" fill="white"/>
<rect x="12" y="15" width="1" height="1" fill="white"/>
<rect width="1" height="1" transform="matrix(1 0 0 -1 12 28)" fill="white"/>
<rect x="24" y="28" width="1" height="1" transform="rotate(-180 24 28)" fill="white"/>
<rect width="1" height="1" transform="matrix(-1 0 0 1 24 14)" fill="white"/>
<rect x="12" y="14" width="1" height="1" fill="white"/>
<rect width="1" height="1" transform="matrix(1 0 0 -1 13 28)" fill="white"/>
<rect x="23" y="28" width="1" height="1" transform="rotate(-180 23 28)" fill="white"/>
<rect width="1" height="1" transform="matrix(-1 0 0 1 23 14)" fill="white"/>
<rect x="13" y="14" width="1" height="1" fill="white"/>
<rect width="1" height="1" transform="matrix(1 0 0 -1 14 23)" fill="white"/>
<rect width="1" height="1" transform="matrix(1 0 0 -1 12 23)" fill="white"/>
<rect x="24" y="23" width="1" height="1" transform="rotate(-180 24 23)" fill="white"/>
<rect width="1" height="1" transform="matrix(1 0 0 -1 11 23)" fill="white"/>
<rect x="25" y="23" width="1" height="1" transform="rotate(-180 25 23)" fill="white"/>
<rect width="1" height="1" transform="matrix(1 0 0 -1 15 23)" fill="white"/>
<rect width="1" height="1" transform="matrix(1 0 0 -1 14 22)" fill="white"/>
<rect width="1" height="1" transform="matrix(1 0 0 -1 12 22)" fill="white"/>
<rect width="1" height="1" transform="matrix(1 0 0 -1 11 22)" fill="white"/>
<rect x="25" y="22" width="1" height="1" transform="rotate(-180 25 22)" fill="white"/>
<rect width="1" height="1" transform="matrix(1 0 0 -1 10 22)" fill="white"/>
<rect x="26" y="22" width="1" height="1" transform="rotate(-180 26 22)" fill="white"/>
<rect width="1" height="1" transform="matrix(1 0 0 -1 20 22)" fill="white"/>
<rect width="1" height="1" transform="matrix(1 0 0 -1 14 21)" fill="white"/>
<rect x="24" y="21" width="1" height="1" transform="rotate(-180 24 21)" fill="white"/>
<rect width="1" height="1" transform="matrix(1 0 0 -1 11 21)" fill="white"/>
<rect x="25" y="21" width="1" height="1" transform="rotate(-180 25 21)" fill="white"/>
<rect width="1" height="1" transform="matrix(1 0 0 -1 10 21)" fill="white"/>
<rect x="26" y="21" width="1" height="1" transform="rotate(-180 26 21)" fill="white"/>
<rect width="1" height="1" transform="matrix(1 0 0 -1 15 21)" fill="white"/>
<rect width="1" height="1" transform="matrix(1 0 0 -1 14 20)" fill="white"/>
<rect width="1" height="1" transform="matrix(1 0 0 -1 12 20)" fill="white"/>
<rect x="24" y="20" width="1" height="1" transform="rotate(-180 24 20)" fill="white"/>
<rect width="1" height="1" transform="matrix(1 0 0 -1 11 20)" fill="white"/>
<rect x="25" y="20" width="1" height="1" transform="rotate(-180 25 20)" fill="white"/>
<rect width="1" height="1" transform="matrix(1 0 0 -1 20 20)" fill="white"/>
<rect width="1" height="1" transform="matrix(1 0 0 -1 15 19)" fill="white"/>
<rect width="1" height="1" transform="matrix(1 0 0 -1 16 18)" fill="white"/>
<rect width="1" height="1" transform="matrix(1 0 0 -1 17 18)" fill="white"/>
<rect width="1" height="1" transform="matrix(1 0 0 -1 18 18)" fill="white"/>
<rect width="1" height="1" transform="matrix(1 0 0 -1 19 18)" fill="white"/>
<rect width="1" height="1" transform="matrix(1 0 0 -1 20 19)" fill="white"/>
<rect width="1" height="1" transform="matrix(1 0 0 -1 21 20)" fill="white"/>
<rect width="1" height="1" transform="matrix(1 0 0 -1 21 21)" fill="white"/>
<rect width="1" height="1" transform="matrix(1 0 0 -1 21 22)" fill="white"/>
<rect width="1" height="1" transform="matrix(1 0 0 -1 21 23)" fill="white"/>
<rect width="1" height="1" transform="matrix(1 0 0 -1 20 24)" fill="white"/>
<rect width="1" height="1" transform="matrix(1 0 0 -1 17 25)" fill="white"/>
<rect x="17" y="15" width="1" height="1" fill="white"/>
<rect width="1" height="1" transform="matrix(1 0 0 -1 17 28)" fill="white"/>
<rect x="17" y="14" width="1" height="1" fill="white"/>
<rect width="1" height="1" transform="matrix(1 0 0 -1 17 29)" fill="white"/>
<rect x="17" y="13" width="1" height="1" fill="white"/>
<rect width="1" height="1" transform="matrix(1 0 0 -1 17 23)" fill="white"/>
<rect width="1" height="1" transform="matrix(1 0 0 -1 17 21)" fill="white"/>
<rect width="1" height="1" transform="matrix(1 0 0 -1 17 19)" fill="white"/>
<rect width="1" height="1" transform="matrix(1 0 0 -1 18 25)" fill="white"/>
<rect width="1" height="1" transform="matrix(1 0 0 -1 18 27)" fill="white"/>
<rect width="1" height="1" transform="matrix(1 0 0 -1 18 28)" fill="white"/>
<rect x="18" y="14" width="1" height="1" fill="white"/>
<rect width="1" height="1" transform="matrix(1 0 0 -1 18 29)" fill="white"/>
<rect x="18" y="13" width="1" height="1" fill="white"/>
<rect width="1" height="1" transform="matrix(1 0 0 -1 18 24)" fill="white"/>
<rect width="1" height="1" transform="matrix(1 0 0 -1 18 22)" fill="white"/>
<rect width="1" height="1" transform="matrix(1 0 0 -1 18 20)" fill="white"/>
<rect width="1" height="1" transform="matrix(1 0 0 -1 19 25)" fill="white"/>
<rect width="1" height="1" transform="matrix(1 0 0 -1 19 27)" fill="white"/>
<rect x="19" y="15" width="1" height="1" fill="white"/>
<rect width="1" height="1" transform="matrix(1 0 0 -1 19 28)" fill="white"/>
<rect x="19" y="14" width="1" height="1" fill="white"/>
<rect width="1" height="1" transform="matrix(1 0 0 -1 19 23)" fill="white"/>
<rect width="1" height="1" transform="matrix(1 0 0 -1 19 21)" fill="white"/>
<rect width="1" height="1" transform="matrix(1 0 0 -1 19 19)" fill="white"/>
</g>
<path d="M90.6013 28H86.2266V27.1293H87.9733V14.876H86.2266V14H90.6013V17.4987H91.4773V20.1267H92.348V22.7493H93.224V25.3773H94.1V28H92.348V25.3773H91.4773V22.7493H90.6013V20.1267H89.7253V17.4987H88.8493V27.1293H90.6013V28ZM101.103 28H95.852V27.1293H97.5986V17.4987H96.728V14H101.103V14.876H99.3506V27.1293H101.103V28ZM96.728 20.1267H95.852V17.4987H96.728V20.1267ZM95.852 22.7493H94.976V20.1267H95.852V22.7493ZM94.976 25.3773H94.1V22.7493H94.976V25.3773Z" fill="white"/>
<path d="M80.992 14.876H76.6173V14H80.992V14.876ZM76.6173 27.1293H74.8653V26.2533H73.9893V25.3773H73.1133V23.6253H72.2427V18.3747H73.1133V16.628H73.9893V15.752H74.8653V14.876H76.6173V15.752H75.7413V16.628H74.8653V18.3747H73.9893V23.6253H74.8653V25.3773H75.7413V26.2533H76.6173V27.1293ZM82.744 27.1293H80.992V26.2533H81.868V25.3773H82.744V23.6253H83.6146V18.3747H82.744V16.628H81.868V15.752H80.992V14.876H82.744V15.752H83.6146V16.628H84.4906V18.3747H85.3667V23.6253H84.4906V25.3773H83.6146V26.2533H82.744V27.1293ZM80.992 28H76.6173V27.1293H80.992V28Z" fill="white"/>
<path d="M65.2453 14.876H60.8707V14H65.2453V14.876ZM60.8707 27.1293H59.1187V26.2533H58.2427V25.3773H57.3667V23.6253H56.496V18.3747H57.3667V16.628H58.2427V15.752H59.1187V14.876H60.8707V15.752H59.9947V16.628H59.1187V18.3747H58.2427V23.6253H59.1187V25.3773H59.9947V26.2533H60.8707V27.1293ZM66.9973 27.1293H65.2453V26.2533H66.1213V25.3773H66.9973V23.6253H67.868V18.3747H66.9973V16.628H66.1213V15.752H65.2453V14.876H66.9973V15.752H67.868V16.628H68.744V18.3747H69.62V23.6253H68.744V25.3773H67.868V26.2533H66.9973V27.1293ZM65.2453 28H60.8707V27.1293H65.2453V28Z" fill="white"/>
<path d="M54.3167 28H43.8153V27.1293H45.562V14.876H43.8153V14H49.066V14.876H47.314V27.1293H52.5647V26.2533H53.4407V25.3773H54.3167V24.5013H55.1873V26.2533H54.3167V28Z" fill="white"/>
<path d="M40.7493 28H32V27.1293H33.7467V14.876H32V14H39.8733V14.876H40.7493V15.752H41.6253V19.2507H40.7493V21.0027H41.6253V21.8787H42.5013V26.2533H41.6253V27.1293H40.7493V28ZM35.4987 20.1267H38.9973V19.2507H39.8733V15.752H38.9973V14.876H35.4987V20.1267ZM35.4987 27.1293H39.8733V26.2533H40.7493V21.8787H39.8733V21.0027H35.4987V27.1293Z" fill="white"/>
<defs>
<clipPath id="clip0_53_11">
<rect width="16" height="16" fill="white" transform="matrix(1 0 0 -1 10 29)"/>
</clipPath>
</defs>
</svg>
